Little Lord Fauntleroy 1980
Alec Guinness, Rick Schroder

German HDTV - English audio built-in

   Video #1
      Codec ID : V_MPEG4/ISO/AVC
      Duration : 1h 38mn
      Bit rate : 7 008 Kbps
      Width : 1 280 pixels
      Height : 720 pixels
      Display aspect ratio : 16:9
      Frame rate : 50.000 fps
      Color space : YUV
      Stream size : 4.84 GiB (90%)
    
   Audio #2
      Codec ID : A_AC3
      Bit rate : 448 Kbps
      Channel(s) : 2 channels
      Stream size : 317 MiB (6%)
      Language : German

   Audio #3
      Codec ID/Hint : MP3
      Bit rate : 192 Kbps
      Channel(s) : 2 channels
      Stream size : 136 MiB (2%)
      Language : English


Subtitles: 
http://www.subtitleseeker.com/0081062/Little+Lord+Fauntleroy/Subtitles/